<svg width="505" height="375" viewBox="0 0 505 375" fill="none" xmlns="http://www.w3.org/2000/svg">
<g id="illus-joboffer">
<path id="Path 14" fill-rule="evenodd" clip-rule="evenodd" d="M472.857 374.768C402.612 374.768 112.714 371.31 61.9395 370.091C11.1644 368.871 66.8727 111.468 134.244 98.7807C201.615 86.0931 225.507 11.7684 301.272 11.7684C377.037 11.7684 528.402 117.179 457.002 197.305C385.602 277.431 518.483 325.429 472.857 374.768Z" fill="#F2F9FF"/>
<path id="Path 3" fill-rule="evenodd" clip-rule="evenodd" d="M158.833 29.178C199.37 86.6177 -0.767317 141.057 5.37084 83.8158C11.509 26.5742 118.295 -28.2616 158.833 29.178Z" fill="#F2F9FF"/>
<g id="message-bubble">
<rect id="Rectangle_arrondi_7_copie" x="20.2329" y="32.2072" width="79.9057" height="32.1538" rx="4.752" fill="#BADBF1"/>
<path id="key" fill-rule="evenodd" clip-rule="evenodd" d="M88.8163 43.1945C89.134 42.7052 89.7973 42.5718 90.2975 42.8966C90.7976 43.2214 90.9455 43.8816 90.6278 44.3709C90.3101 44.8601 89.6468 44.9935 89.1466 44.6687C88.6465 44.344 88.4986 43.6837 88.8163 43.1945ZM85.8806 42.7577C85.0777 43.9939 85.1296 45.5378 85.8759 46.7307L81.8419 52.9425L82.1048 55.2128L84.9429 54.1164L84.7635 52.7402L86.0937 52.3443L85.9143 50.968L87.2445 50.5721L88.5932 48.4953C89.9866 48.692 91.4181 48.1114 92.2209 46.8752C93.3332 45.1624 92.8155 42.8522 91.0647 41.7152C89.3139 40.5782 86.9928 41.0449 85.8806 42.7577Z" fill="#F2F9FF"/>
<path id="Forme_61_copie" fill-rule="evenodd" clip-rule="evenodd" d="M76.7538 63.4553C76.7538 63.4553 79.2367 70.896 82.4113 71.5531C85.5859 72.2102 74.5462 73.707 68.5244 64.4675" fill="#BADBF1"/>
<rect id="Rectangle_arrondi_8" x="34.877" y="41.5336" width="32.1654" height="3.59444" rx="1.188" fill="#EDF7FF"/>
<rect id="Rectangle_arrondi_8_copie" x="34.877" y="50.1808" width="10.7074" height="3.5804" rx="1.188" fill="#EDF7FF"/>
<rect id="Rectangle_arrondi_8_copie_2" x="47.7432" y="50.1808" width="22.8684" height="3.5804" rx="1.188" fill="#EDF7FF"/>
</g>
<g id="paperdoc">
<g id="Group 36">
<mask id="mask0" mask-type="alpha" maskUnits="userSpaceOnUse" x="193" y="7" width="175" height="273">
<path id="Clip 35" fill-rule="evenodd" clip-rule="evenodd" d="M196.476 7.76733C194.678 7.76733 193.221 9.22389 193.221 11.0217V276.416C193.221 278.212 194.678 279.67 196.476 279.67H364.331C366.128 279.67 367.584 278.212 367.584 276.416V11.0217C367.584 9.22389 366.128 7.76733 364.331 7.76733H196.476Z" fill="white"/>
</mask>
<g mask="url(#mask0)">
<path id="Fill 34" fill-rule="evenodd" clip-rule="evenodd" d="M189.621 283.27H371.184V4.16736H189.621V283.27Z" fill="white"/>
</g>
</g>
<path id="Fill 37" fill-rule="evenodd" clip-rule="evenodd" d="M196.475 9.71961C195.758 9.71961 195.174 10.3035 195.174 11.0214V276.415C195.174 277.133 195.758 277.717 196.475 277.717H364.33C365.048 277.717 365.632 277.133 365.632 276.415V11.0214C365.632 10.3035 365.048 9.71961 364.33 9.71961H196.475ZM364.33 281.623H196.475C193.605 281.623 191.269 279.286 191.269 276.415V11.0214C191.269 8.15001 193.605 5.81433 196.475 5.81433H364.33C367.202 5.81433 369.537 8.15001 369.537 11.0214V276.415C369.537 279.286 367.202 281.623 364.33 281.623Z" fill="#041766"/>
<g id="Group 41">
<mask id="mask1" mask-type="alpha" maskUnits="userSpaceOnUse" x="215" y="188" width="136" height="25">
<path id="Clip 40" fill-rule="evenodd" clip-rule="evenodd" d="M218.859 188.752C217.061 188.752 215.604 190.208 215.604 192.005V209.201C215.604 210.998 217.061 212.455 218.859 212.455H347.1C348.898 212.455 350.355 210.998 350.355 209.201V192.005C350.355 190.208 348.898 188.752 347.1 188.752H218.859Z" fill="white"/>
</mask>
<g mask="url(#mask1)">
<path id="Fill 39" fill-rule="evenodd" clip-rule="evenodd" d="M212.004 216.055H353.955V185.152H212.004V216.055Z" fill="#DFECF7"/>
</g>
</g>
<g id="Group 44">
<mask id="mask2" mask-type="alpha" maskUnits="userSpaceOnUse" x="213" y="146" width="136" height="25">
<path id="Clip 43" fill-rule="evenodd" clip-rule="evenodd" d="M217.014 146.997C215.216 146.997 213.76 148.454 213.76 150.251V167.456C213.76 169.253 215.216 170.71 217.014 170.71H345.256C347.053 170.71 348.51 169.253 348.51 167.456V150.251C348.51 148.454 347.053 146.997 345.256 146.997H217.014Z" fill="white"/>
</mask>
<g mask="url(#mask2)">
<path id="Fill 42" fill-rule="evenodd" clip-rule="evenodd" d="M210.16 174.31H352.11V143.397H210.16V174.31Z" fill="#DFECF7"/>
</g>
</g>
<g id="Group 50">
<mask id="mask3" mask-type="alpha" maskUnits="userSpaceOnUse" x="212" y="67" width="135" height="26">
<path id="Clip 49" fill-rule="evenodd" clip-rule="evenodd" d="M215.403 67.6555C213.605 67.6555 212.147 69.1121 212.147 70.9099V89.4067C212.147 91.2046 213.605 92.6611 215.403 92.6611H343.662C345.459 92.6611 346.916 91.2046 346.916 89.4067V70.9099C346.916 69.1121 345.459 67.6555 343.662 67.6555H215.403Z" fill="white"/>
</mask>
<g mask="url(#mask3)">
<path id="Fill 48" fill-rule="evenodd" clip-rule="evenodd" d="M208.548 96.2604H350.516V64.0548H208.548V96.2604Z" fill="#DFECF7"/>
</g>
</g>
<g id="Group 50_2">
<mask id="mask4" mask-type="alpha" maskUnits="userSpaceOnUse" x="212" y="105" width="135" height="26">
<path id="Clip 49_2" fill-rule="evenodd" clip-rule="evenodd" d="M215.403 105.656C213.605 105.656 212.147 107.112 212.147 108.91V127.407C212.147 129.205 213.605 130.661 215.403 130.661H343.662C345.459 130.661 346.916 129.205 346.916 127.407V108.91C346.916 107.112 345.459 105.656 343.662 105.656H215.403Z" fill="white"/>
</mask>
<g mask="url(#mask4)">
<path id="Fill 48_2" fill-rule="evenodd" clip-rule="evenodd" d="M208.548 134.26H350.516V102.055H208.548V134.26Z" fill="#DFECF7"/>
</g>
</g>
<g id="Group 53">
<mask id="mask5" mask-type="alpha" maskUnits="userSpaceOnUse" x="211" y="31" width="87" height="26">
<path id="Clip 52" fill-rule="evenodd" clip-rule="evenodd" d="M214.549 31.8931C212.752 31.8931 211.295 33.3504 211.295 35.1475V53.6443C211.295 55.4422 212.752 56.8987 214.549 56.8987H294.594C296.391 56.8987 297.849 55.4422 297.849 53.6443V35.1475C297.849 33.3504 296.391 31.8931 294.594 31.8931H214.549Z" fill="white"/>
</mask>
<g mask="url(#mask5)">
<path id="Fill 51" fill-rule="evenodd" clip-rule="evenodd" d="M207.695 60.4987H301.449V28.2932H207.695V60.4987Z" fill="#DFECF7"/>
</g>
</g>
<g id="Group 56">
<mask id="mask6" mask-type="alpha" maskUnits="userSpaceOnUse" x="318" y="26" width="29" height="30">
<path id="Clip 55" fill-rule="evenodd" clip-rule="evenodd" d="M318.489 40.9392C318.489 48.7887 324.853 55.152 332.703 55.152C340.553 55.152 346.916 48.7887 346.916 40.9392C346.916 33.0891 340.553 26.7257 332.703 26.7257C324.853 26.7257 318.489 33.0891 318.489 40.9392Z" fill="white"/>
</mask>
<g mask="url(#mask6)">
<path id="Fill 54" fill-rule="evenodd" clip-rule="evenodd" d="M314.889 58.752H350.515V23.1257H314.889V58.752Z" fill="#DFECF7"/>
</g>
</g>
<path id="Oval" d="M278.733 263.768C287.293 263.768 294.233 256.829 294.233 248.268C294.233 239.708 287.293 232.768 278.733 232.768C270.172 232.768 263.233 239.708 263.233 248.268C263.233 256.829 270.172 263.768 278.733 263.768Z" fill="#00C997"/>
<path id="check" d="M274.233 244.359L280.633 249.768L296.233 232.768" stroke="#041766" stroke-width="4.39324" stroke-linecap="round"/>
</g>
<g id="Flower">
<path id="Forme_82" fill-rule="evenodd" clip-rule="evenodd" d="M472.907 350.641C472.907 350.641 496.47 317.557 467.112 313.066C437.755 308.575 466.764 371.591 466.764 371.591" fill="#0B9B77"/>
<path id="Forme_83" fill-rule="evenodd" clip-rule="evenodd" d="M459.866 366.298C459.866 366.298 457.167 324.589 450.447 330.289C443.727 335.988 453.672 349.029 444.29 347.901C434.907 346.774 435.86 360.431 445.015 365.516" fill="#6EF3D2"/>
<path id="Forme_81" fill-rule="evenodd" clip-rule="evenodd" d="M471.511 372.787C471.511 372.787 488.858 337.316 478.847 333.867C468.837 330.418 465.076 349.935 463.868 358.275C462.66 366.615 471.677 281.604 458.059 292.969C444.441 304.334 462.813 353.16 454.084 358.604C445.354 364.048 445.293 346.691 439.409 351.019C433.524 355.347 430.723 364.686 442.443 372.972" fill="#00C997"/>
</g>
<g id="yellow-man">
<g id="face">
<path id="Ellipse_24_copie" fill-rule="evenodd" clip-rule="evenodd" d="M128.638 101.781C130.425 101.781 131.874 104.58 131.874 108.032C131.874 111.485 130.425 114.284 128.638 114.284C126.85 114.284 125.404 111.485 125.404 108.032C125.404 104.579 126.853 101.781 128.638 101.781Z" stroke="#041766" stroke-width="1.2"/>
<path id="face-2" fill-rule="evenodd" clip-rule="evenodd" d="M113.92 84.5298C122.372 84.8298 128.851 95.4998 128.392 108.363C127.933 121.227 120.71 131.412 112.258 131.112C103.806 130.813 97.3277 120.142 97.7866 107.279C98.2455 94.4153 105.468 84.2302 113.92 84.5298Z" fill="#FBD2A7"/>
<path id="Path" d="M125.611 107.826C125.968 107.826 126.259 108.982 126.259 110.408C126.259 111.834 125.968 112.99 125.611 112.99C125.254 112.99 124.963 111.834 124.963 110.408C124.963 108.982 125.254 107.826 125.611 107.826Z" fill="black"/>
<path id="SMILE" fill-rule="evenodd" clip-rule="evenodd" d="M118.053 117.786C118.053 117.786 115.941 124.202 122.15 123.109L118.053 117.786Z" fill="#E0A669"/>
<path id="Path_2" fill-rule="evenodd" clip-rule="evenodd" d="M125.821 101.781C127.729 101.781 129.277 104.87 129.277 108.684C129.277 112.497 127.729 115.587 125.821 115.587C123.914 115.587 122.369 112.496 122.369 108.684C122.369 104.871 123.914 101.781 125.821 101.781Z" stroke="#041766" stroke-width="1.2"/>
<path id="Forme_75" d="M122.632 108.716C122.632 108.716 111.7 106.546 109.25 108.716" stroke="#041766" stroke-width="1.2"/>
</g>
<path id="hair" fill-rule="evenodd" clip-rule="evenodd" d="M108.557 130.252C108.557 130.252 109.922 118.408 105.102 110.841C100.282 103.274 107.07 106.178 108.989 108.684C110.909 111.19 116.02 116.01 116.325 106.095C116.631 96.1813 118.53 93.6381 128.845 98.7625C139.159 103.887 161.204 83.5703 146.547 78.9196C131.889 74.2689 126.028 86.8999 117.621 83.6648C109.214 80.4298 87.1062 79.7501 92.5829 100.488C98.0597 121.225 97.5018 122.063 108.557 130.252Z" fill="#041766"/>
<path id="neck" fill-rule="evenodd" clip-rule="evenodd" d="M105.966 132.84L108.557 129.389L115.033 127.664L118.053 134.134C118.053 134.134 111.416 139.942 105.966 132.84Z" fill="#FBD2A7"/>
<path id="shoes_right" fill-rule="evenodd" clip-rule="evenodd" d="M97.3308 354.56C97.3308 354.56 95.2373 364.47 97.3308 364.914C99.4244 365.358 119.979 367.446 123.665 363.187C127.351 358.927 116.487 358.778 108.125 356.285C105.987 355.565 105.534 352.836 105.534 352.836" fill="#4373F7"/>
<path id="shoes_left" fill-rule="evenodd" clip-rule="evenodd" d="M80.8647 338.169L84.8118 343.064C84.8118 343.064 80.0579 347.092 86.2934 361.177C88.8489 373.255 70.2201 348.691 71.9837 344.042C74.2242 339.6 80.8647 338.169 80.8647 338.169Z" fill="#4373F7"/>
<g id="leg">
<path id="pant_rigt" fill-rule="evenodd" clip-rule="evenodd" d="M105.534 232.485L131.436 232.054C131.436 232.054 139.594 267.158 138.343 287.7C137.093 308.242 83.9478 343.346 83.9478 343.346L80.4956 337.305C80.4956 337.305 99.2653 309.613 105.534 285.543C111.802 261.474 103.806 240.68 103.806 240.68" fill="#000F4C"/>
<path id="pant_left" fill-rule="evenodd" clip-rule="evenodd" d="M77.9043 227.741C77.9043 227.741 89.1487 324.072 96.4671 354.129C99.3374 358.073 105.534 353.697 105.534 353.697C105.534 353.697 116.811 282.709 112.009 237.23C107.208 191.752 77.9043 227.741 77.9043 227.741Z" fill="#041766"/>
<path id="Forme_91" d="M113.305 263.111C113.305 263.111 115.36 287.433 109.85 323.503" stroke="white" stroke-width="1.30637" stroke-linecap="round"/>
</g>
<path id="body" fill-rule="evenodd" clip-rule="evenodd" d="M77.9043 227.74C88.5908 236.178 131.004 232.917 131.004 232.917C131.004 232.917 138.05 216.637 141.364 148.369C124.721 116.266 115.234 146.485 104.238 137.585C93.2428 128.685 47.2303 166.5 77.9043 227.74Z" fill="#FFD700"/>
<path id="Forme_72" fill-rule="evenodd" clip-rule="evenodd" d="M100.786 136.722C100.786 136.722 96.4072 131.849 101.65 131.546C106.893 131.243 105.756 136.233 110.282 135.86C114.808 135.487 118.353 128.337 119.349 131.978C120.345 135.618 119.694 137.272 118.485 138.448C123.791 163.435 116.326 180.72 116.326 180.72C116.326 180.72 113.686 182.259 114.601 178.996C115.516 175.732 119.859 158.393 110.714 147.075C109.1 142.422 102.244 139.796 100.786 136.722Z" fill="white"/>
<path id="arm" fill-rule="evenodd" clip-rule="evenodd" d="M134.405 162.378C134.405 162.378 168.402 149.003 203.943 146.763C202.303 145.891 209.592 141.642 208.38 140.234C208.38 140.234 154.402 126.19 126.05 133.525C108.978 124.579 134.405 162.378 134.405 162.378Z" fill="#FFD700"/>
<path id="HAND" fill-rule="evenodd" clip-rule="evenodd" d="M85.2225 230.137C85.2225 230.137 88.5577 236.214 87.379 239.627C86.2003 243.04 85.1505 248.268 82.6311 249.549C80.1117 250.829 79.3348 231.862 80.0427 228.841" fill="#FBD2A7"/>
<path id="Forme_1377" d="M88.5189 234.144C88.5189 234.144 86.6503 246.822 81.9204 250.04" stroke="white" stroke-width="1.30637" stroke-linecap="round"/>
<path id="Forme_90" d="M86.9111 186.23C86.9111 186.23 90.5103 219.033 84.7546 228.505C82.5411 231.055 79.5718 228.937 79.5718 228.937" stroke="white" stroke-width="1.5" stroke-linecap="round"/>
<path id="Forme_94" d="M138.775 187.622C138.775 187.622 138.88 181.785 136.616 173.819" stroke="white" stroke-width="1.30637" stroke-linecap="round"/>
<path id="hand-2" fill-rule="evenodd" clip-rule="evenodd" d="M208.76 140.016C208.76 140.016 228.816 146.036 225.186 147.119C221.556 148.202 216.216 145.859 216.216 145.859C216.216 145.859 213.155 149.454 210.609 148.56C208.064 147.666 204.316 143.75 204.316 143.75L208.76 140.016Z" fill="#FBD2A7"/>
</g>
<g id="blue-man">
<g id="table">
<g id="Forme_97_copie">
<path fill-rule="evenodd" clip-rule="evenodd" d="M120.721 222.924L67.5479 368.973L120.721 222.924Z" fill="#041766"/>
<path d="M120.721 222.924L67.5479 368.973" stroke="#D4ECFD" stroke-width="3.1185" stroke-linecap="round"/>
</g>
<g id="Forme_97">
<path fill-rule="evenodd" clip-rule="evenodd" d="M229.141 223.448L273.558 362.043L229.141 223.448Z" fill="#041766"/>
<path d="M229.141 223.448L273.558 362.043" stroke="#DEEDF9" stroke-width="3.1185" stroke-linecap="round"/>
</g>
<path id="Forme_96" fill-rule="evenodd" clip-rule="evenodd" d="M102.911 222.676H259.054C257.877 219.981 237.062 209.105 237.062 209.105H122.704L102.911 222.676Z" fill="white" stroke="#041766" stroke-width="3.1185" stroke-linecap="round" stroke-linejoin="round"/>
</g>
<g id="men_copie">
<path id="neck_2" fill-rule="evenodd" clip-rule="evenodd" d="M189.984 137.154L185.417 129.863L179.496 128.298L175.144 137.714" fill="#FFE1C1"/>
<g id="face_2">
<path id="face-2_2" fill-rule="evenodd" clip-rule="evenodd" d="M178.707 88.4171C170.61 90.0899 166.043 100.779 168.506 112.293C170.97 123.806 179.531 131.784 187.627 130.111C195.724 128.439 200.291 117.749 197.829 106.236C195.367 94.7235 186.803 86.7447 178.707 88.4171Z" fill="#FFE1C1"/>
<path id="SMILE_2" d="M192.531 122.643C192.531 122.643 188.235 122.638 187.901 117.348" stroke="#E1A15E" stroke-width="1.2474" stroke-linecap="round"/>
<g id="Eyes">
<path id="Path_3" fill-rule="evenodd" clip-rule="evenodd" d="M194.283 104.468C193.772 104.589 193.565 106.158 193.821 107.972C194.077 109.787 194.697 111.162 195.209 111.042C195.721 110.922 195.926 109.353 195.671 107.538C195.415 105.722 194.794 104.348 194.283 104.468Z" fill="#041766"/>
<path id="Forme_56" d="M194.78 110.544C194.78 110.544 176.908 108.996 175.21 110.544" stroke="#041766" stroke-width="1.2474"/>
<path id="Oval_2" fill-rule="evenodd" clip-rule="evenodd" d="M197.096 115.933C198.66 115.933 199.927 112.762 199.927 108.85C199.927 104.938 198.66 101.767 197.096 101.767C195.533 101.767 194.266 104.938 194.266 108.85C194.266 112.762 195.533 115.933 197.096 115.933Z" stroke="#041766" stroke-width="1.2"/>
</g>
<path id="hair_2" fill-rule="evenodd" clip-rule="evenodd" d="M153.629 104.075C152.611 96.0843 152.352 89.7081 173.085 87.7205C185.422 86.3026 192.424 72.614 201.99 78.6646C211.556 84.7152 209.552 92.6752 193.897 97.2079C178.242 101.741 186.453 111.882 178.14 111.347C169.828 110.812 176.516 116.762 176.516 116.762C176.516 116.762 182.221 126.565 179.192 129.27C176.164 131.975 155.05 115.243 153.629 104.075Z" fill="#041766"/>
</g>
<path id="feet_left" fill-rule="evenodd" clip-rule="evenodd" d="M183.915 345.548C183.915 345.548 180.079 353.339 185.015 354.718C189.95 356.097 208.429 362.402 206.64 357.652C204.852 352.901 195.385 352.014 192.712 346.282C191.022 342.659 183.915 345.548 183.915 345.548Z" fill="#284CB0"/>
<path id="feet_right" fill-rule="evenodd" clip-rule="evenodd" d="M167.42 345.915C167.42 345.915 161.652 353.766 165.22 355.818C168.789 357.869 188.312 355.45 188.312 355.45C188.312 355.45 195.604 352.426 185.013 350.315C177.11 349.417 177.618 348.665 174.384 345.18" fill="#4373F7"/>
<path id="leg_left" fill-rule="evenodd" clip-rule="evenodd" d="M208.473 232.946C208.473 232.946 230.062 282.729 219.469 298.968C208.875 315.207 191.978 345.548 191.978 345.548H183.548C183.548 345.548 198.297 290.331 195.276 283.562C190.688 266.474 172.185 232.947 172.185 232.947" fill="#000F4C"/>
<path id="leg_right" fill-rule="evenodd" clip-rule="evenodd" d="M158.624 232.946C158.624 232.946 160.822 315.235 167.054 345.548C168.052 348.247 174.752 345.18 174.752 345.18C174.752 345.18 192.172 275.89 186.847 231.112" fill="#041766"/>
<g id="body_2">
<path id="body-2" fill-rule="evenodd" clip-rule="evenodd" d="M229.352 208.886C229.352 208.886 253.369 209.395 234.354 175.701C215.339 142.008 199.344 136.003 182.444 135.756C165.544 135.51 158.019 138.045 130.533 181.846C109.274 215.906 149.921 208.886 149.921 208.886" fill="#3163EC"/>
<path id="Forme_95" fill-rule="evenodd" clip-rule="evenodd" d="M214.44 218.45L234.6 155.731L137.467 145.828L154.824 215.15" fill="url(#paint0_linear)"/>
<path id="Forme_60" d="M222.517 196.039C222.517 196.039 206.042 194.915 203.111 197.161" stroke="white" stroke-width="1.5" stroke-linecap="round"/>
<path id="Forme_51" d="M210.593 173.536C210.593 173.536 205.796 166.064 206.215 161.859" stroke="white" stroke-width="1.5" stroke-linecap="round"/>
<path id="Forme_52" d="M163.005 172.813C163.005 172.813 165.117 171.916 166.132 168.511" stroke="white" stroke-width="1.5" stroke-linecap="round"/>
<path id="Forme_53" d="M152.78 198.546C152.78 198.546 148.173 196.075 141.522 196.088" stroke="white" stroke-width="1.2474" stroke-linecap="round"/>
<path id="Forme_54" d="M147.081 196.02L150.209 192.947" stroke="white" stroke-width="1.2474" stroke-linecap="round"/>
<path id="body-3" fill-rule="evenodd" clip-rule="evenodd" d="M212.504 223.88L208.839 233.05H158.991L156.426 223.88" fill="#3163EC"/>
</g>
<g id="laptop">
<path id="Forme_55" fill-rule="evenodd" clip-rule="evenodd" d="M215.668 216.789L220.234 208.938H147.176L153.455 216.789" fill="#1D43AB"/>
<path id="Rectangle_arrondi_5" d="M154.542 171.925H213.934C214.87 171.925 215.629 172.684 215.629 173.62V217.345H152.846V173.62C152.846 172.684 153.605 171.925 154.542 171.925Z" fill="#041766"/>
<g id="logo">
<path id="Fill 1" fill-rule="evenodd" clip-rule="evenodd" d="M182.23 198.544C182.055 198.544 181.486 198.652 181.37 198.473C181.299 198.364 181.37 197.951 181.37 197.828V196.266V192.15V190.478C181.37 190.3 181.281 189.81 181.37 189.651C181.468 189.476 181.774 189.554 181.957 189.554H183.714H185.708H186.426C186.521 189.554 186.796 189.504 186.88 189.554C187.033 189.645 186.978 189.827 186.978 190.005V191.379V195.893C186.978 196.089 187.098 198.521 186.909 198.544H184.116H182.23ZM188.138 192.536C188.138 191.575 188.187 190.599 188.138 189.639C188.058 188.093 186.4 188.364 185.352 188.364C184.077 188.364 182.79 188.308 181.517 188.364C180.187 188.422 180.21 189.579 180.21 190.591C180.21 193.172 180.139 195.764 180.21 198.344C180.255 199.988 181.866 199.734 182.996 199.734H186.769C186.813 199.739 186.859 199.74 186.909 199.734C186.979 199.734 187.04 199.721 187.097 199.702C188.319 199.436 188.138 198.125 188.138 197.09V192.536Z" fill="white"/>
<path id="Fill 3" fill-rule="evenodd" clip-rule="evenodd" d="M188.136 196.316C188.371 196.498 188.605 196.68 188.84 196.862C189.436 197.323 190.015 196.29 189.426 195.834C188.994 195.5 188.563 195.165 188.131 194.831" fill="white"/>
<g id="Group 7">
<mask id="mask7" mask-type="alpha" maskUnits="userSpaceOnUse" x="178" y="191" width="9" height="6">
<path id="Clip 6" fill-rule="evenodd" clip-rule="evenodd" d="M178.676 191.855H186.975V196.884H178.676V191.855Z" fill="white"/>
</mask>
<g mask="url(#mask7)">
<path id="Fill 5" fill-rule="evenodd" clip-rule="evenodd" d="M186.966 193.929C186.11 193.266 185.254 192.603 184.398 191.94C184.252 191.827 183.959 191.826 183.813 191.94C182.182 193.207 180.552 194.473 178.922 195.74C178.334 196.196 178.911 197.231 179.507 196.768C181.04 195.577 182.573 194.386 184.106 193.195C185.062 193.936 186.019 194.676 186.975 195.417" fill="white"/>
</g>
</g>
<path id="Fill 8" fill-rule="evenodd" clip-rule="evenodd" d="M185 196.896C185 197.334 184.654 197.689 184.227 197.689C183.8 197.689 183.455 197.334 183.455 196.896C183.455 196.458 183.8 196.103 184.227 196.103C184.654 196.103 185 196.458 185 196.896Z" fill="white"/>
</g>
</g>
</g>
<g id="fleur_pot_copie">
<path id="Forme_59" fill-rule="evenodd" clip-rule="evenodd" d="M144.284 205.976C144.284 205.976 145.426 194.849 140.985 196.807C136.545 198.764 141.533 193.246 138.419 191.671C135.306 190.097 133.778 195.593 134.754 198.64C135.73 201.688 134.421 198.061 131.455 199.741C128.489 201.421 129.838 206.453 131.455 208.544C133.072 210.635 144.284 205.976 144.284 205.976Z" fill="#00C997"/>
<path id="Forme_58" fill-rule="evenodd" clip-rule="evenodd" d="M144.284 205.976L140.619 218.814H132.921L129.256 205.976H144.284Z" fill="#FF8E49"/>
<rect id="Rectangle_arrondi_6" x="127.789" y="204.875" width="17.9634" height="4.76901" rx="0.93555" fill="#FF9F65"/>
<rect id="Rectangle" x="136.263" y="209.048" width="7.4844" height="1.2474" rx="0.6237" fill="white"/>
</g>
</g>
<g id="pink-woman">
<path id="face_3" fill-rule="evenodd" clip-rule="evenodd" d="M389.054 98.1283C397.816 96.5361 406.803 105.617 409.129 118.411C411.455 131.205 406.235 142.867 397.473 144.46C388.712 146.052 379.725 136.971 377.399 124.177C375.073 111.384 380.292 99.7208 389.054 98.1283Z" fill="#E49F56"/>
<path id="neck_3" fill-rule="evenodd" clip-rule="evenodd" d="M391.694 143.697C391.694 143.697 390.01 154.652 387.413 155.684C384.816 156.716 399.97 153.115 399.97 153.115L400.256 140.558" fill="#E49F56"/>
<path id="Path 2" fill-rule="evenodd" clip-rule="evenodd" d="M430.898 153.71L400.621 150.508L406.83 223.88L413.012 248.268L430.898 183.364V153.71Z" fill="#F4496F"/>
<path id="body_3" fill-rule="evenodd" clip-rule="evenodd" d="M403.906 150.508C385.432 150.375 402.137 141.724 375.998 150.508C349.858 159.293 373.951 215.801 368.529 224.541C381.657 224.541 402.543 223.607 409.682 223.607C411.966 201.597 409.514 202.281 415.382 179.657C421.25 157.033 422.379 150.642 403.906 150.508Z" fill="#F4496F"/>
<path id="Path 4" fill-rule="evenodd" clip-rule="evenodd" d="M365.002 184.349C365.002 184.349 323.307 184.175 310.798 141.184C310.798 139.089 316.94 137.278 316.94 137.278C316.94 137.278 344.325 173.818 370.803 150.635C388.255 130.116 411.966 164.665 411.966 164.665L365.002 184.349Z" fill="#F4496F"/>
<path id="hair_3" fill-rule="evenodd" clip-rule="evenodd" d="M361.728 96.6075C369.302 85.3802 377.008 97.5573 386.557 91.4704C396.106 85.3836 420.932 88.7082 422.343 111.995C422.642 116.922 432.939 132.442 446.403 166.555C453.521 184.591 442.966 194.769 428.947 196.5C416.45 198.043 401.201 192.874 393.264 180.575C376.422 154.478 395.496 131.198 397.687 127.145C403.267 116.821 399.873 115.695 396.26 119.154C392.647 122.612 354.154 107.835 361.728 96.6075Z" fill="#041766"/>
<path id="mouth" fill-rule="evenodd" clip-rule="evenodd" d="M384.067 135.056C384.067 135.056 390.745 138.983 391.388 131.293L384.067 135.056Z" fill="#C47B2E"/>
<g id="eyes">
<path id="Oval_3" fill-rule="evenodd" clip-rule="evenodd" d="M387.919 126.243C388.38 126.136 388.524 125.053 388.24 123.822C387.956 122.592 387.351 121.681 386.89 121.788C386.429 121.894 386.285 122.978 386.569 124.208C386.853 125.438 387.457 126.349 387.919 126.243Z" fill="#00166A"/>
<path id="Oval_4" fill-rule="evenodd" clip-rule="evenodd" d="M380.06 126.243C380.521 126.136 380.665 125.053 380.381 123.822C380.097 122.592 379.492 121.681 379.031 121.788C378.57 121.894 378.426 122.978 378.71 124.208C378.994 125.438 379.598 126.349 380.06 126.243Z" fill="#00166A"/>
<path id="Forme_21" d="M390.562 122.718C390.562 122.718 402.212 113.505 406.83 114.442" stroke="#041766" stroke-width="1.2"/>
<path id="Path_4" fill-rule="evenodd" clip-rule="evenodd" d="M384.891 116.182C387.12 115.681 389.615 118.33 390.462 122.097C391.31 125.865 390.185 129.325 387.956 129.826C385.728 130.327 383.233 127.679 382.386 123.911C381.538 120.143 382.662 116.681 384.891 116.182Z" stroke="#041766" stroke-width="1.2"/>
<path id="Path_5" fill-rule="evenodd" clip-rule="evenodd" d="M374.889 116.182C377.118 115.681 379.613 118.33 380.46 122.097C381.308 125.865 380.183 129.325 377.954 129.826C375.726 130.327 373.231 127.679 372.384 123.911C371.536 120.143 372.66 116.681 374.889 116.182Z" stroke="#041766" stroke-width="1.2"/>
</g>
<path id="Oval_5" fill-rule="evenodd" clip-rule="evenodd" d="M397.763 141.057C399.342 141.057 400.621 138.371 400.621 135.056C400.621 131.742 399.342 129.055 397.763 129.055C396.185 129.055 394.906 131.742 394.906 135.056C394.906 138.371 396.185 141.057 397.763 141.057Z" stroke="#FFD700" stroke-width="1.14307"/>
<path id="Oval_6" fill-rule="evenodd" clip-rule="evenodd" d="M397.764 128.484C398.395 128.484 398.907 127.972 398.907 127.341C398.907 126.709 398.395 126.197 397.764 126.197C397.132 126.197 396.621 126.709 396.621 127.341C396.621 127.972 397.132 128.484 397.764 128.484Z" fill="#FFD700"/>
<path id="Forme_981" d="M392.694 143.697C392.694 143.697 394.306 144.695 397.26 143.697" stroke="#041766" stroke-width="0.856179" stroke-linecap="round"/>
<path id="Path 10" fill-rule="evenodd" clip-rule="evenodd" d="M367.284 250.742C367.284 258.099 358.921 280.344 360.743 296.35C362.188 309.042 372.101 361.486 372.101 361.486H379.482C379.482 361.486 377.929 287.046 391.694 267.26C405.459 247.474 367.284 230.956 367.284 250.742Z" fill="#D19351"/>
<path id="Path 11" fill-rule="evenodd" clip-rule="evenodd" d="M386.054 309.268L390.036 364.426H396.62C396.62 364.426 408.466 317.103 409.682 286.441C410.898 255.779 386.054 281.994 386.054 281.994V309.268Z" fill="#E49F56"/>
<path id="feet_left_2" fill-rule="evenodd" clip-rule="evenodd" d="M390.166 360.129C390.166 360.129 386.33 367.921 391.266 369.3C396.201 370.679 414.68 376.984 412.891 372.233C411.103 367.483 401.636 366.595 398.963 360.864C397.273 357.241 390.166 360.129 390.166 360.129Z" fill="#3163EC"/>
<path id="feet_right_2" fill-rule="evenodd" clip-rule="evenodd" d="M379.572 361.503C379.572 361.503 385.34 369.354 381.771 371.406C378.203 373.457 358.679 371.038 358.679 371.038C358.679 371.038 351.388 368.014 361.978 365.903C369.882 365.005 369.374 364.253 372.608 360.768" fill="#4373F7"/>
<path id="Path 5" fill-rule="evenodd" clip-rule="evenodd" d="M409.682 222.876L369.136 222.717C369.136 222.717 354.202 276.564 360.743 296.35C384.538 294.501 395.564 298.531 408.682 295.949C420.653 258.289 409.682 222.876 409.682 222.876Z" fill="#B52A49"/>
<path id="Path 12" d="M364.982 195.039C364.982 195.039 362.189 182.672 365.423 173.73" stroke="white" stroke-width="1.5" stroke-linecap="round"/>
<path id="hand" fill-rule="evenodd" clip-rule="evenodd" d="M317.252 137.231C317.252 137.231 309.832 129.686 305.991 131.246C305.446 131.467 299.588 130.96 298.837 131.293C294.299 133.31 292.249 137.817 295.204 138.902C298.646 140.166 311.11 141.609 311.11 141.609L317.252 137.231Z" fill="#E49F56"/>
<path id="Path 6" d="M409.682 222.88C409.682 222.88 413.466 210.125 411.966 199.668" stroke="white" stroke-width="1.5" stroke-linecap="round"/>
</g>
<path id="Line" d="M408.683 373.518L503.733 373.268" stroke="#041766" stroke-width="2.45" stroke-linecap="round"/>
<path id="Line Copy" d="M52.0576 370.768H114.008" stroke="#041766" stroke-width="2.45" stroke-linecap="round"/>
<path id="Line_2" d="M339.833 373.768H327.233" stroke="#041766" stroke-width="2.45" stroke-linecap="round"/>
</g>
<defs>
<linearGradient id="paint0_linear" x1="145.125" y1="157.279" x2="145.125" y2="218.45" gradientUnits="userSpaceOnUse">
<stop stop-color="white" stop-opacity="0.01"/>
<stop offset="1" stop-color="white"/>
</linearGradient>
</defs>
</svg>
